<mxfile host="app.diagrams.net" agent="Mozilla/5.0 (Windows NT 10.0; Win64; x64) AppleWebKit/537.36 (KHTML, like Gecko) Chrome/133.0.0.0 Safari/537.36" version="26.0.16">
  <diagram name="Sayfa -1" id="8cwbpopggt8tEq5vZRPt">
    <mxGraphModel dx="2261" dy="1907" grid="1" gridSize="10" guides="1" tooltips="1" connect="1" arrows="1" fold="1" page="1" pageScale="1" pageWidth="827" pageHeight="1169" math="0" shadow="0">
      <root>
        <mxCell id="0" />
        <mxCell id="1" parent="0" />
        <mxCell id="MqNcd7UJvDZ60etA62qL-3" value="" style="shape=actor;whiteSpace=wrap;html=1;" vertex="1" parent="1">
          <mxGeometry x="170" y="-370" width="40" height="60" as="geometry" />
        </mxCell>
        <mxCell id="MqNcd7UJvDZ60etA62qL-19" value="" style="edgeStyle=orthogonalEdgeStyle;rounded=0;orthogonalLoop=1;jettySize=auto;html=1;" edge="1" parent="1" source="MqNcd7UJvDZ60etA62qL-4" target="MqNcd7UJvDZ60etA62qL-3">
          <mxGeometry relative="1" as="geometry" />
        </mxCell>
        <mxCell id="MqNcd7UJvDZ60etA62qL-4" value="EventController" style="rounded=0;whiteSpace=wrap;html=1;" vertex="1" parent="1">
          <mxGeometry y="-370" width="120" height="60" as="geometry" />
        </mxCell>
        <mxCell id="MqNcd7UJvDZ60etA62qL-13" style="edgeStyle=orthogonalEdgeStyle;rounded=0;orthogonalLoop=1;jettySize=auto;html=1;exitX=0.5;exitY=0;exitDx=0;exitDy=0;entryX=0.5;entryY=1;entryDx=0;entryDy=0;" edge="1" parent="1" source="MqNcd7UJvDZ60etA62qL-5" target="MqNcd7UJvDZ60etA62qL-6">
          <mxGeometry relative="1" as="geometry" />
        </mxCell>
        <mxCell id="MqNcd7UJvDZ60etA62qL-5" value="IEventService" style="rounded=0;whiteSpace=wrap;html=1;" vertex="1" parent="1">
          <mxGeometry x="-160" y="-280" width="120" height="60" as="geometry" />
        </mxCell>
        <mxCell id="MqNcd7UJvDZ60etA62qL-23" value="" style="edgeStyle=orthogonalEdgeStyle;rounded=0;orthogonalLoop=1;jettySize=auto;html=1;" edge="1" parent="1" source="MqNcd7UJvDZ60etA62qL-6" target="MqNcd7UJvDZ60etA62qL-4">
          <mxGeometry relative="1" as="geometry" />
        </mxCell>
        <mxCell id="MqNcd7UJvDZ60etA62qL-6" value="&lt;div&gt;&lt;span style=&quot;background-color: transparent; color: light-dark(rgb(0, 0, 0), rgb(255, 255, 255));&quot;&gt;EventService&lt;/span&gt;&lt;/div&gt;" style="rounded=0;whiteSpace=wrap;html=1;" vertex="1" parent="1">
          <mxGeometry x="-160" y="-370" width="120" height="60" as="geometry" />
        </mxCell>
        <mxCell id="MqNcd7UJvDZ60etA62qL-14" style="edgeStyle=orthogonalEdgeStyle;rounded=0;orthogonalLoop=1;jettySize=auto;html=1;exitX=1;exitY=0.5;exitDx=0;exitDy=0;entryX=0;entryY=0.5;entryDx=0;entryDy=0;" edge="1" parent="1" source="MqNcd7UJvDZ60etA62qL-7" target="MqNcd7UJvDZ60etA62qL-8">
          <mxGeometry relative="1" as="geometry" />
        </mxCell>
        <mxCell id="MqNcd7UJvDZ60etA62qL-7" value="Event&lt;div&gt;(entity)&lt;/div&gt;" style="rounded=0;whiteSpace=wrap;html=1;" vertex="1" parent="1">
          <mxGeometry x="-800" y="-370" width="120" height="60" as="geometry" />
        </mxCell>
        <mxCell id="MqNcd7UJvDZ60etA62qL-15" value="" style="edgeStyle=orthogonalEdgeStyle;rounded=0;orthogonalLoop=1;jettySize=auto;html=1;" edge="1" parent="1" source="MqNcd7UJvDZ60etA62qL-8" target="MqNcd7UJvDZ60etA62qL-9">
          <mxGeometry relative="1" as="geometry" />
        </mxCell>
        <mxCell id="MqNcd7UJvDZ60etA62qL-8" value="ShowMasterApp&lt;div&gt;DbContext&lt;/div&gt;" style="rounded=0;whiteSpace=wrap;html=1;" vertex="1" parent="1">
          <mxGeometry x="-640" y="-370" width="120" height="60" as="geometry" />
        </mxCell>
        <mxCell id="MqNcd7UJvDZ60etA62qL-21" value="" style="edgeStyle=orthogonalEdgeStyle;rounded=0;orthogonalLoop=1;jettySize=auto;html=1;" edge="1" parent="1" source="MqNcd7UJvDZ60etA62qL-9" target="MqNcd7UJvDZ60etA62qL-11">
          <mxGeometry relative="1" as="geometry" />
        </mxCell>
        <mxCell id="MqNcd7UJvDZ60etA62qL-9" value="EventRepository" style="rounded=0;whiteSpace=wrap;html=1;" vertex="1" parent="1">
          <mxGeometry x="-480" y="-370" width="120" height="60" as="geometry" />
        </mxCell>
        <mxCell id="MqNcd7UJvDZ60etA62qL-12" style="edgeStyle=orthogonalEdgeStyle;rounded=0;orthogonalLoop=1;jettySize=auto;html=1;exitX=0.5;exitY=0;exitDx=0;exitDy=0;entryX=0.5;entryY=1;entryDx=0;entryDy=0;" edge="1" parent="1" source="MqNcd7UJvDZ60etA62qL-10" target="MqNcd7UJvDZ60etA62qL-9">
          <mxGeometry relative="1" as="geometry" />
        </mxCell>
        <mxCell id="MqNcd7UJvDZ60etA62qL-10" value="IEventRepository" style="rounded=0;whiteSpace=wrap;html=1;" vertex="1" parent="1">
          <mxGeometry x="-480" y="-280" width="120" height="60" as="geometry" />
        </mxCell>
        <mxCell id="MqNcd7UJvDZ60etA62qL-22" value="" style="edgeStyle=orthogonalEdgeStyle;rounded=0;orthogonalLoop=1;jettySize=auto;html=1;" edge="1" parent="1" source="MqNcd7UJvDZ60etA62qL-11" target="MqNcd7UJvDZ60etA62qL-6">
          <mxGeometry relative="1" as="geometry" />
        </mxCell>
        <mxCell id="MqNcd7UJvDZ60etA62qL-25" value="" style="edgeStyle=orthogonalEdgeStyle;rounded=0;orthogonalLoop=1;jettySize=auto;html=1;" edge="1" parent="1" source="MqNcd7UJvDZ60etA62qL-11" target="MqNcd7UJvDZ60etA62qL-9">
          <mxGeometry relative="1" as="geometry" />
        </mxCell>
        <mxCell id="MqNcd7UJvDZ60etA62qL-11" value="EventDTO&lt;div&gt;(DTO)&lt;/div&gt;" style="rounded=0;whiteSpace=wrap;html=1;" vertex="1" parent="1">
          <mxGeometry x="-320" y="-370" width="120" height="60" as="geometry" />
        </mxCell>
      </root>
    </mxGraphModel>
  </diagram>
</mxfile>
